<?xml version="1.0" standalone="no"?>
<!DOCTYPE svg PUBLIC "-//W3C//DTD SVG 20010904//EN"
 "http://www.w3.org/TR/2001/REC-SVG-20010904/DTD/svg10.dtd">
<svg version="1.0" xmlns="http://www.w3.org/2000/svg"
 width="1280.000000pt" height="1280.000000pt" viewBox="0 0 1280.000000 1280.000000"
 preserveAspectRatio="xMidYMid meet">
<metadata>
Created by potrace 1.15, written by Peter Selinger 2001-2017
</metadata>
<g transform="translate(0.000000,1280.000000) scale(0.100000,-0.100000)"
fill="#000000" stroke="none">
<path d="M6145 12794 c-216 -13 -391 -28 -530 -45 -995 -122 -1927 -467 -2760
-1022 -907 -604 -1648 -1433 -2146 -2402 -395 -769 -615 -1549 -690 -2450 -17
-193 -17 -757 0 -950 75 -901 295 -1681 690 -2450 610 -1187 1579 -2156 2766
-2766 769 -395 1549 -615 2450 -690 193 -17 757 -17 950 0 901 75 1681 295
2450 690 1187 610 2156 1579 2766 2766 395 769 615 1549 690 2450 17 193 17
757 0 950 -75 901 -295 1681 -690 2450 -610 1187 -1579 2156 -2766 2766 -753
387 -1531 610 -2390 684 -164 15 -666 27 -790 19z m739 -779 c1310 -112 2518
-670 3465 -1599 979 -963 1558 -2205 1672 -3591 16 -193 16 -657 0 -850 -114
-1385 -693 -2628 -1672 -3591 -961 -943 -2169 -1494 -3524 -1605 -193 -16
-657 -16 -850 0 -1385 114 -2628 693 -3591 1672 -943 961 -1494 2169 -1605
3524 -16 193 -16 657 0 850 114 1385 693 2628 1672 3591 878 862 1988 1408
3189 1568 416 55 832 66 1244 31z"/>
<path d="M5060 10738 c-55 -15 -679 -379 -716 -418 -85 -87 -103 -206 -47
-315 67 -129 1153 -2002 1181 -2035 57 -68 178 -105 267 -81 46 12 662 365
715 409 71 59 108 190 78 277 -8 22 -276 495 -596 1050 -471 817 -591 1018
-628 1052 -68 64 -164 87 -254 61z"/>
<path d="M3942 9868 c-216 -132 -322 -210 -434 -317 -341 -326 -432 -664 -362
-1346 165 -1616 1352 -3892 2728 -5232 360 -351 731 -631 1033 -779 191 -94
332 -132 523 -141 257 -12 504 61 877 261 113 60 151 85 147 96 -5 13 -1156
2013 -1190 2068 l-15 22 -39 -20 c-69 -35 -183 -69 -275 -80 -215 -27 -466 49
-712 216 -587 397 -1121 1268 -1263 2059 -81 448 -20 809 175 1038 33 39 144
132 166 139 7 2 -220 406 -591 1049 -331 574 -605 1047 -609 1052 -4 4 -75
-35 -159 -85z"/>
<path d="M8220 5330 c-55 -8 -74 -18 -428 -222 -156 -90 -299 -179 -319 -198
-72 -71 -101 -183 -71 -271 17 -50 1155 -2025 1197 -2078 71 -90 212 -117 326
-62 86 41 614 347 655 380 56 45 90 120 90 202 0 37 -5 81 -12 96 -34 80
-1175 2043 -1206 2075 -61 64 -141 91 -232 78z"/>
</g>
</svg>
